<?xml version="1.0" encoding="UTF-8"?>
<svg version="1.1" xmlns="http://www.w3.org/2000/svg" width="512" height="512">
<path d="M0 0 C0.73458435 0.00090637 1.4691687 0.00181274 2.22601318 0.00274658 C3.38724197 -0.00732925 3.38724197 -0.00732925 4.57192993 -0.01760864 C7.13914352 -0.03665514 9.70609656 -0.04051627 12.27337646 -0.04266357 C14.05455637 -0.04908732 15.83573519 -0.05581536 17.61691284 -0.06283569 C21.35447638 -0.0748254 25.09194738 -0.07851483 28.82952881 -0.07733154 C33.62048831 -0.07712836 38.4108546 -0.10442249 43.20167351 -0.13887596 C46.88197559 -0.16110783 50.56213413 -0.16517022 54.24249649 -0.16411209 C56.00876026 -0.16647397 57.77502763 -0.1753304 59.54122543 -0.19077682 C62.01209834 -0.21036061 64.48168229 -0.20462936 66.95257568 -0.19256592 C67.68311157 -0.20380493 68.41364746 -0.21504395 69.1663208 -0.22662354 C72.56870357 -0.18438468 74.39907278 0.0501711 77.14157104 2.13613892 C79.62169167 5.52837418 79.84228174 8.23819833 79.83221436 12.31549072 C79.83213882 13.33632248 79.83206329 14.35715424 79.83198547 15.40892029 C79.82682419 16.50899918 79.8216629 17.60907806 79.81634521 18.74249268 C79.81422279 20.43412285 79.81422279 20.43412285 79.8120575 22.15992737 C79.80645367 25.76690304 79.7939005 29.37381697 79.78118896 32.98077393 C79.77617446 35.42413241 79.77161147 37.86749186 79.76751709 40.31085205 C79.75648299 46.3050138 79.73974112 52.29913945 79.71868896 58.29327393 C81.6096228 58.50113525 81.6096228 58.50113525 83.53875732 58.7131958 C87.20177734 59.1158541 89.92110975 60.26729909 93.28118896 61.79327393 C96.36977343 62.85056261 96.36977343 62.85056261 99.71868896 62.29327393 C104.88504795 58.81202819 108.91648571 53.83318075 112.85101318 49.05841064 C118.97708557 43.26867164 125.60708037 43.89723786 133.55462646 44.00030518 C135.40635971 44.00667244 135.40635971 44.00667244 137.29550171 44.01316833 C141.22845502 44.02992662 145.16089118 44.0675751 149.09368896 44.10577393 C151.76425439 44.12251652 154.43481495 44.13451209 157.10540771 44.14678955 C163.64334382 44.17982094 170.18097944 44.22999281 176.71868896 44.29327393 C176.92070419 43.67123077 177.12271942 43.04918762 177.33085632 42.40829468 C177.59797928 41.59448334 177.86510223 40.780672 178.14031982 39.94219971 C178.40421005 39.13453156 178.66810028 38.3268634 178.93998718 37.49472046 C181.76264273 29.51486809 188.48804515 24.23157848 195.71868896 20.29327393 C206.26204196 16.10563231 216.15981143 16.24037144 226.71868896 20.29327393 C236.26879685 25.24073955 242.90415529 32.83090934 246.30462646 43.05499268 C248.49244473 54.8815952 246.78951896 65.49409566 240.09368896 75.48077393 C233.13401967 84.09750734 224.2556141 88.10138211 213.48040771 89.60577393 C203.79759672 90.17222722 193.94887788 86.54200687 186.65618896 80.28155518 C181.34131349 74.82737853 178.73547343 69.59221428 176.71868896 62.29327393 C143.14563981 58.74881866 143.14563981 58.74881866 112.87445068 70.79766846 C101.19961236 81.12788306 96.9190654 91.6187443 95.76556396 107.12921143 C95.00259697 121.5672329 95.72909158 135.87411597 96.71868896 150.29327393 C108.59868896 150.29327393 120.47868896 150.29327393 132.71868896 150.29327393 C133.04868896 148.64327393 133.37868896 146.99327393 133.71868896 145.29327393 C137.28734355 136.41943194 143.81454692 129.86552641 152.46868896 125.85577393 C161.39049458 122.17139864 171.21085982 122.16521768 180.30462646 125.25421143 C189.77703247 129.33133116 196.16212604 135.55878805 200.59368896 144.79327393 C204.37858429 154.58010682 204.12946424 165.13291835 200.04681396 174.79327393 C195.33286675 183.66658633 188.70291118 190.48728036 179.07025146 193.72296143 C168.69148161 196.24007172 158.47579641 195.91554228 148.95697021 190.81280518 C141.41886867 185.88881358 136.20337457 179.61780065 132.71868896 171.29327393 C132.71868896 170.30327393 132.71868896 169.31327393 132.71868896 168.29327393 C111.09868194 165.69930105 111.09868194 165.69930105 90.86956787 171.08233643 C86.37564183 176.09640775 84.33990911 182.28006562 82.15814209 188.55841064 C79.76167589 195.12540469 76.12850613 201.16315203 72.76647949 207.27151489 C70.89484591 210.69748586 69.08648817 214.15639615 67.27337646 217.61358643 C65.5785084 220.83913082 63.90292163 224.00192509 61.95550537 227.081604 C61.34328125 228.17638062 61.34328125 228.17638062 60.71868896 229.29327393 C61.28751065 231.43698223 61.28751065 231.43698223 62.71868896 233.29327393 C63.12087646 233.94167236 63.52306396 234.5900708 63.93743896 235.25811768 C64.7904164 236.57139086 65.64458045 237.8838941 66.49993896 239.19561768 C67.71868896 241.29327393 67.71868896 241.29327393 69.71868896 246.29327393 C110.96868896 246.62327393 152.21868896 246.95327393 194.71868896 247.29327393 C195.04868896 245.31327393 195.37868896 243.33327393 195.71868896 241.29327393 C200.52552542 231.46337654 208.52118193 224.89006904 218.71868896 221.29327393 C228.16686085 218.38614411 237.81793836 220.64168393 246.71868896 224.29327393 C254.92052814 228.63861918 260.6632919 236.46929275 263.65618896 245.16827393 C266.23310358 255.37989829 265.41202662 265.70779885 260.24212646 274.92608643 C253.47786409 285.27324577 245.7584295 289.68688483 233.71868896 292.29327393 C230.62605412 292.67685654 227.80940949 292.66026115 224.71868896 292.29327393 C223.99294678 292.21077393 223.26720459 292.12827393 222.51947021 292.04327393 C211.93601907 290.27013028 203.90461297 283.82302526 197.71868896 275.29327393 C195.81730348 271.9706508 194.71868896 269.18467295 194.71868896 265.29327393 C153.46868896 265.62327393 112.21868896 265.95327393 69.71868896 266.29327393 C67.73868896 270.25327393 65.75868896 274.21327393 63.71868896 278.29327393 C62.72868896 279.28327393 61.73868896 280.27327393 60.71868896 281.29327393 C62.31733299 287.13263233 65.2588052 291.97939465 68.28118896 297.16827393 C74.87398858 308.63624532 81.08506516 320.28729251 87.24432373 331.99200439 C87.6012178 332.66888306 87.95811188 333.34576172 88.32582092 334.04315186 C89.00085447 335.32403226 89.67417955 336.6058149 90.3455658 337.88861084 C91.76417435 340.77671612 91.76417435 340.77671612 93.71868896 343.29327393 C96.60121541 343.45350955 99.46247424 343.55281421 102.34759521 343.60968018 C103.64394142 343.64085182 103.64394142 343.64085182 104.96647644 343.6726532 C107.73796341 343.73824506 110.50954818 343.7970781 113.28118896 343.85577393 C115.1555482 343.89895 117.0298974 343.94256399 118.90423584 343.9866333 C123.50895233 344.0939362 128.11376755 344.19517607 132.71868896 344.29327393 C132.93017578 343.13203003 132.93017578 343.13203003 133.14593506 341.94732666 C134.81168415 334.22850382 140.27316883 327.62662573 146.71868896 323.29327393 C155.67607143 317.85035742 164.89138225 316.05929734 175.21868896 318.04327393 C185.06276449 320.47892148 192.63309124 325.61734438 198.03118896 334.23077393 C203.09363158 342.76064299 203.66187372 351.58633085 202.71868896 361.29327393 C200.05477606 371.52079668 194.64522929 379.01268991 185.78118896 384.66827393 C176.58481371 389.76506021 166.83623161 390.85614614 156.59368896 388.16827393 C146.61035017 384.77710805 139.22133253 378.3226934 134.34368896 369.04327393 C133.05345822 366.42085372 132.71868896 365.30593914 132.71868896 362.29327393 C120.83868896 362.29327393 108.95868896 362.29327393 96.71868896 362.29327393 C92.72320533 400.36995671 92.72320533 400.36995671 105.6293335 434.70001221 C116.4249823 446.39577517 127.42174509 450.439668 143.19898987 451.43022156 C154.40104118 451.86119009 165.56260433 451.32291104 176.71868896 450.29327393 C176.91775848 449.67417648 177.116828 449.05507904 177.32192993 448.41722107 C177.58676178 447.60570084 177.85159363 446.7941806 178.12445068 445.95806885 C178.3853952 445.15334641 178.64633972 444.34862396 178.91519165 443.51951599 C181.74152876 435.68861171 188.42570347 429.9165406 195.71868896 426.29327393 C207.37915616 421.84477199 217.22656694 422.47996879 228.71868896 427.29327393 C235.53558399 431.21476645 239.97286453 436.44994083 243.71868896 443.29327393 C244.05900146 443.88366455 244.39931396 444.47405518 244.74993896 445.08233643 C248.234128 452.40558561 247.82731173 462.52055896 246.02728271 470.26983643 C242.77004539 479.07391723 237.00714689 486.73057233 228.71868896 491.29327393 C216.09390437 496.4390722 206.33022693 496.57542985 193.71868896 491.29327393 C184.40728119 485.93678599 179.52912834 478.46452907 176.71868896 468.29327393 C175.69630882 468.31325943 175.69630882 468.31325943 174.65327454 468.33364868 C167.53147332 468.46683712 160.41002834 468.5570709 153.28729248 468.62286377 C150.63195485 468.64955871 147.97857832 468.69382634 145.32342529 468.74591064 C141.49790014 468.81905096 137.67369427 468.85280823 133.84759521 468.87921143 C132.07987511 468.92566299 132.07987511 468.92566299 130.27644348 468.97305298 C122.49023028 468.97620216 117.55421946 467.558947 111.71868896 462.29327393 C110.22660608 460.67262483 108.83971425 459.02054526 107.47259521 457.29425049 C105.19457766 454.48052702 102.98992016 451.93834916 99.71868896 450.29327393 C95.28282786 449.96753035 91.28776781 451.45705417 87.18743896 452.99639893 C83.71868896 454.29327393 83.71868896 454.29327393 79.71868896 454.29327393 C79.72868172 455.23501717 79.72868172 455.23501717 79.73887634 456.19578552 C79.80527279 462.73319373 79.85050759 469.27050606 79.88348389 475.8081665 C79.89856551 478.24765921 79.91903366 480.68712483 79.94500732 483.12652588 C79.98141709 486.63399951 79.99842186 490.14111447 80.01165771 493.64874268 C80.02714157 494.73849899 80.04262543 495.82825531 80.05857849 496.95103455 C80.06066441 506.34699051 80.06066441 506.34699051 76.71868896 510.29327393 C74.24571542 512.76624747 72.81364573 512.54357007 69.43737793 512.58654785 C68.70279358 512.58564148 67.96820923 512.58473511 67.21136475 512.58380127 C66.05013596 512.59387711 66.05013596 512.59387711 64.865448 512.60415649 C62.29823441 512.62320299 59.73128137 512.62706412 57.16400146 512.62921143 C55.38282156 512.63563517 53.60164274 512.64236321 51.82046509 512.64938354 C48.08290155 512.66137325 44.34543054 512.66506268 40.60784912 512.66387939 C35.81688962 512.66367621 31.02652333 512.69097034 26.23570442 512.72542381 C22.55540234 512.74765568 18.8752438 512.75171807 15.19488144 512.75065994 C13.42861767 512.75302182 11.6623503 512.76187825 9.8961525 512.77732468 C7.42527959 512.79690846 4.95569564 512.79117721 2.48480225 512.77911377 C1.75426636 512.79035278 1.02373047 512.8015918 0.27105713 512.81317139 C-3.13132564 512.77093253 -4.96169485 512.53637675 -7.70419312 510.45040894 C-10.18431374 507.05817367 -10.40490381 504.34834953 -10.39483643 500.27105713 C-10.39476089 499.25022537 -10.39468536 498.22939362 -10.39460754 497.17762756 C-10.38944626 496.07754868 -10.38428497 494.97746979 -10.37896729 493.84405518 C-10.37684486 492.152425 -10.37684486 492.152425 -10.37467957 490.42662048 C-10.36907574 486.81964481 -10.35652257 483.21273088 -10.34381104 479.60577393 C-10.33879653 477.16241545 -10.33423354 474.719056 -10.33013916 472.2756958 C-10.31910507 466.28153406 -10.30236319 460.2874084 -10.28131104 454.29327393 C-11.49504395 454.15768066 -12.70877686 454.0220874 -13.95928955 453.88238525 C-19.27615886 453.21420632 -24.14430809 451.67185756 -29.21881104 449.98077393 C-30.76653198 449.46595459 -30.76653198 449.46595459 -32.34552002 448.94073486 C-46.95644971 443.89026056 -60.90523923 437.0156697 -74.28131104 429.29327393 C-74.71535248 429.72953598 -75.14939392 430.16579803 -75.59658813 430.61528015 C-80.10307323 435.14384033 -84.61303618 439.66891503 -89.12506104 444.19195557 C-90.80988108 445.88181317 -92.4938037 447.572566 -94.17681885 449.26422119 C-96.59212225 451.69161534 -99.01060473 454.11580162 -101.42974854 456.53936768 C-102.56263809 457.67999916 -102.56263809 457.67999916 -103.71841431 458.84367371 C-104.41898956 459.54432449 -105.11956482 460.24497528 -105.84136963 460.96685791 C-106.45869965 461.58640854 -107.07602966 462.20595917 -107.71206665 462.84428406 C-109.98592083 464.94388798 -111.29472688 465.29542046 -114.40631104 465.79327393 C-123.56151816 464.61195688 -130.96019641 453.76186457 -137.30865479 447.39874268 C-138.34843126 446.35964127 -139.38835602 445.32068822 -140.42842102 444.28187561 C-142.59072688 442.12103325 -144.75124058 439.95841956 -146.91046143 437.79449463 C-149.6800373 435.01917913 -152.45413719 432.2484356 -155.2295599 429.47896862 C-157.36999512 427.34213903 -159.50805285 425.20294343 -161.64538765 423.06301308 C-162.66814325 422.03959043 -163.69164211 421.01691002 -164.7158947 419.99498558 C-166.13977395 418.57363747 -167.56011952 417.14875201 -168.98028564 415.72369385 C-169.78888535 414.91429855 -170.59748505 414.10490326 -171.43058777 413.27098083 C-173.79219526 410.74733641 -174.22907935 409.61972198 -174.78131104 406.16827393 C-173.46762687 395.98722163 -159.43367632 386.33770785 -152.34381104 379.29327393 C-150.97834358 377.93283074 -149.61310718 376.57215561 -148.24810791 375.21124268 C-144.92850217 371.90257083 -141.6057783 368.59706071 -138.28131104 365.29327393 C-139.07795166 363.80718628 -139.07795166 363.80718628 -139.89068604 362.29107666 C-147.16723725 348.69842134 -153.78337378 335.38424778 -158.71881104 320.73077393 C-159.06105713 319.71958496 -159.40330322 318.708396 -159.75592041 317.66656494 C-161.55506463 312.15141842 -162.64852169 307.05369327 -163.28131104 301.29327393 C-163.90913986 301.29993576 -164.53696869 301.3065976 -165.18382263 301.3134613 C-171.72123084 301.37985775 -178.25854317 301.42509255 -184.79620361 301.45806885 C-187.23569632 301.47315047 -189.67516194 301.49361862 -192.11456299 301.51959229 C-195.62203662 301.55600205 -199.12915158 301.57300682 -202.63677979 301.58624268 C-203.7265361 301.60172653 -204.81629242 301.61721039 -205.93907166 301.63316345 C-215.33502761 301.63524937 -215.33502761 301.63524937 -219.28131104 298.29327393 C-221.75428458 295.82030038 -221.53160718 294.3882307 -221.57458496 291.01196289 C-221.57367859 290.27737854 -221.57277222 289.54279419 -221.57183838 288.78594971 C-221.5785556 288.01179718 -221.58527283 287.23764465 -221.5921936 286.44003296 C-221.6112401 283.87281937 -221.61510123 281.30586633 -221.61724854 278.73858643 C-221.62367228 276.95740653 -221.63040032 275.1762277 -221.63742065 273.39505005 C-221.64941036 269.65748651 -221.65309979 265.92001551 -221.6519165 262.18243408 C-221.65171332 257.39147458 -221.67900745 252.60110829 -221.71346092 247.81028938 C-221.73569279 244.1299873 -221.73975518 240.44982876 -221.73869705 236.7694664 C-221.74105893 235.00320263 -221.74991536 233.23693526 -221.76536179 231.47073746 C-221.78494557 228.99986456 -221.77921432 226.53028061 -221.76715088 224.05938721 C-221.77838989 223.32885132 -221.78962891 222.59831543 -221.8012085 221.84564209 C-221.75896964 218.44325932 -221.52441386 216.61289011 -219.43844604 213.87039185 C-216.04621078 211.39027122 -213.33638663 211.16968115 -209.25909424 211.17974854 C-208.23826248 211.17982407 -207.21743073 211.1798996 -206.16566467 211.17997742 C-205.06558578 211.1851387 -203.9655069 211.19029999 -202.83209229 211.19561768 C-201.14046211 211.1977401 -201.14046211 211.1977401 -199.41465759 211.1999054 C-195.80768192 211.20550922 -192.20076799 211.21806239 -188.59381104 211.23077393 C-186.15045256 211.23578843 -183.7070931 211.24035142 -181.26373291 211.2444458 C-175.26957117 211.2554799 -169.27544551 211.27222178 -163.28131104 211.29327393 C-163.14571777 210.07954102 -163.01012451 208.86580811 -162.87042236 207.61529541 C-162.20224343 202.2984261 -160.65989467 197.43027687 -158.96881104 192.35577393 C-158.62559814 191.32395996 -158.28238525 190.292146 -157.92877197 189.22906494 C-152.87829767 174.61813525 -146.00370681 160.66934573 -138.28131104 147.29327393 C-138.71757309 146.85923248 -139.15383514 146.42519104 -139.60331726 145.97799683 C-144.13187744 141.47151173 -148.65695214 136.96154878 -153.17999268 132.44952393 C-154.86985028 130.76470388 -156.56060311 129.08078126 -158.2522583 127.39776611 C-160.67965245 124.98246271 -163.10383873 122.56398023 -165.52740479 120.14483643 C-166.28782578 119.38957672 -167.04824677 118.63431702 -167.83171082 117.85617065 C-168.5323616 117.1555954 -169.23301239 116.45502014 -169.95489502 115.73321533 C-170.57444565 115.11588531 -171.19399628 114.4985553 -171.83232117 113.86251831 C-173.93192509 111.58866413 -174.28345757 110.27985808 -174.78131104 107.16827393 C-173.59999399 98.0130668 -162.74990168 90.61438855 -156.38677979 84.26593018 C-155.34767838 83.2261537 -154.30872533 82.18622894 -153.26991272 81.14616394 C-151.10907036 78.98385808 -148.94645667 76.82334438 -146.78253174 74.66412354 C-144.00721623 71.89454766 -141.23647271 69.12044777 -138.46700573 66.34502506 C-136.33017614 64.20458984 -134.19098053 62.06653211 -132.05105019 59.92919731 C-131.02762754 58.90644171 -130.00494713 57.88294285 -128.98302269 56.85869026 C-127.56167458 55.43481101 -126.13678911 54.01446544 -124.71173096 52.59429932 C-123.90233566 51.78569962 -123.09294037 50.97709991 -122.25901794 50.14399719 C-119.73537352 47.7823897 -118.60775909 47.34550561 -115.15631104 46.79327393 C-104.97525874 48.10695809 -95.32574495 62.14090864 -88.28131104 69.23077393 C-86.92086785 70.59624138 -85.56019272 71.96147778 -84.19927979 73.32647705 C-80.89060794 76.64608279 -77.58509782 79.96880666 -74.28131104 83.29327393 C-72.79522339 82.4966333 -72.79522339 82.4966333 -71.27911377 81.68389893 C-57.68645845 74.40734771 -44.37228489 67.79121118 -29.71881104 62.85577393 C-28.70762207 62.51352783 -27.69643311 62.17128174 -26.65460205 61.81866455 C-21.13945553 60.01952033 -16.04173038 58.92606327 -10.28131104 58.29327393 C-10.29130379 57.35153069 -10.29130379 57.35153069 -10.30149841 56.39076233 C-10.36789486 49.85335412 -10.41312966 43.31604179 -10.44610596 36.77838135 C-10.46118758 34.33888864 -10.48165573 31.89942302 -10.50762939 29.46002197 C-10.54403916 25.95254834 -10.56104393 22.44543338 -10.57427979 18.93780518 C-10.58976364 17.84804886 -10.6052475 16.75829254 -10.62120056 15.63551331 C-10.62328648 6.23955735 -10.62328648 6.23955735 -7.28131104 2.29327393 C-4.80833749 -0.17969962 -3.3762678 0.04297778 0 0 Z " fill="#3F5C6C" transform="translate(235.28131103515625,-0.29327392578125)"/>
<path d="M0 0 C0.70552002 0.10924805 1.41104004 0.21849609 2.13793945 0.33105469 C7.80723806 1.3681464 12.96834961 3.48565889 18.25 5.75 C21.06419436 52.84909907 21.06419436 52.84909907 6.20458984 73.89990234 C2.90637617 78.70921367 0.18369073 83.83272337 -2.625 88.9375 C-3.68634641 90.80868667 -4.75006064 92.67853274 -5.81640625 94.546875 C-9.59359503 101.21120418 -13.20060221 107.96217884 -16.75 114.75 C-17.86117187 114.70359375 -18.97234375 114.6571875 -20.1171875 114.609375 C-31.84542906 114.25965248 -39.77868709 115.15107627 -49.0625 122.9375 C-55.32433391 128.90396439 -59.35749719 135.33860876 -59.98828125 144.03515625 C-60.20652371 155.1425488 -58.90738084 163.40616418 -51.5625 172.125 C-46.17725784 177.71463254 -39.72584819 182.4132611 -31.73535156 182.86352539 C-31.0440918 182.85828857 -30.35283203 182.85305176 -29.640625 182.84765625 C-28.88652344 182.84443359 -28.13242187 182.84121094 -27.35546875 182.83789062 C-26.57816406 182.82951172 -25.80085937 182.82113281 -25 182.8125 C-23.81083984 182.80573242 -23.81083984 182.80573242 -22.59765625 182.79882812 C-20.64840492 182.78708565 -18.69919262 182.76915146 -16.75 182.75 C-16.39397705 183.41717041 -16.0379541 184.08434082 -15.67114258 184.77172852 C-8.71532074 197.79011697 -1.70462153 210.76231499 5.63354492 223.57055664 C6.63700696 225.32731698 7.62501189 227.09298243 8.59863281 228.86645508 C9.78446689 230.93710651 11.0616264 232.9564392 12.39355469 234.9362793 C19.68680313 246.23998226 19.19032243 257.08686922 18.75 270.1875 C18.70977705 272.28704063 18.67329201 274.38665634 18.640625 276.48632812 C18.5534295 281.5761092 18.4159238 286.662202 18.25 291.75 C16.99576772 292.2337079 15.74021459 292.71399157 14.48413086 293.19287109 C13.43557167 293.59462051 13.43557167 293.59462051 12.36582947 294.00448608 C9.23472861 295.10773155 6.0688517 295.74785078 2.8125 296.375 C1.59691406 296.61476563 0.38132812 296.85453125 -0.87109375 297.1015625 C-19.57657197 300.22856087 -39.28558478 300.20363224 -57.75 295.75 C-59.01585937 295.45996094 -60.28171875 295.16992188 -61.5859375 294.87109375 C-82.22977128 289.78462336 -102.36236374 280.37319019 -118.75 266.75 C-119.31025879 266.29367187 -119.87051758 265.83734375 -120.44775391 265.3671875 C-152.04481969 239.58632553 -171.34295392 203.25589907 -175.75 162.75 C-176.02620707 157.974723 -176.08435266 153.22001929 -176.0625 148.4375 C-176.05831055 147.17147949 -176.05412109 145.90545898 -176.04980469 144.60107422 C-175.93422427 134.99191502 -175.03988783 126.06679683 -172.75 116.75 C-172.45996094 115.48671875 -172.16992188 114.2234375 -171.87109375 112.921875 C-164.24654551 81.91325202 -146.70355791 52.89498909 -121.75 32.75 C-121.24903809 32.33862793 -120.74807617 31.92725586 -120.23193359 31.50341797 C-86.80104629 4.37532178 -42.39400327 -6.67455696 0 0 Z " fill="#2FA7CB" transform="translate(295.75,107.25)"/>
<path d="M0 0 C7.47476354 5.41920357 13.47348062 12.98459334 15.1875 22.25 C16.01469462 34.53587419 15.01810773 44.44484281 7.00390625 54.3671875 C-0.48646839 62.1314038 -9.45515765 66.05964816 -20.1875 66.6875 C-30.30644256 66.25227666 -39.74005511 62.50781139 -46.8125 55.25 C-50.99885834 50.15238693 -53.05533079 45.60936733 -54.8125 39.25 C-88.38554915 35.70554473 -88.38554915 35.70554473 -118.65673828 47.75439453 C-130.33157661 58.08460914 -134.61212357 68.57547037 -135.765625 84.0859375 C-136.52859199 98.52395898 -135.80209738 112.83084204 -134.8125 127.25 C-122.9325 127.25 -111.0525 127.25 -98.8125 127.25 C-98.4825 125.6 -98.1525 123.95 -97.8125 122.25 C-94.24384541 113.37615801 -87.71664204 106.82225248 -79.0625 102.8125 C-70.14069439 99.12812472 -60.32032915 99.12194375 -51.2265625 102.2109375 C-41.7541565 106.28805724 -35.36906293 112.51551412 -30.9375 121.75 C-27.15260467 131.5368329 -27.40172473 142.08964442 -31.484375 151.75 C-36.19832221 160.6233124 -42.82827778 167.44400644 -52.4609375 170.6796875 C-62.83970735 173.1967978 -73.05539255 172.87226835 -82.57421875 167.76953125 C-90.11232029 162.84553966 -95.32781439 156.57452673 -98.8125 148.25 C-98.8125 147.26 -98.8125 146.27 -98.8125 145.25 C-120.43250703 142.65602712 -120.43250703 142.65602712 -140.66162109 148.0390625 C-145.15554713 153.05313383 -147.19127985 159.23679169 -149.37304688 165.51513672 C-151.76951307 172.08213076 -155.40268283 178.11987811 -158.76470947 184.22824097 C-160.63634305 187.65421193 -162.44470079 191.11312222 -164.2578125 194.5703125 C-165.95268056 197.79585689 -167.62826733 200.95865116 -169.57568359 204.03833008 C-170.18790771 205.13310669 -170.18790771 205.13310669 -170.8125 206.25 C-170.24367831 208.3937083 -170.24367831 208.3937083 -168.8125 210.25 C-168.4103125 210.89839844 -168.008125 211.54679688 -167.59375 212.21484375 C-166.74077257 213.52811693 -165.88660852 214.84062017 -165.03125 216.15234375 C-163.8125 218.25 -163.8125 218.25 -161.8125 223.25 C-120.5625 223.58 -79.3125 223.91 -36.8125 224.25 C-36.4825 222.27 -36.1525 220.29 -35.8125 218.25 C-31.00566355 208.42010261 -23.01000704 201.84679512 -12.8125 198.25 C-3.36432811 195.34287019 6.28674939 197.59841001 15.1875 201.25 C23.38933917 205.59534526 29.13210294 213.42601882 32.125 222.125 C34.70191461 232.33662437 33.88083765 242.66452493 28.7109375 251.8828125 C21.94667512 262.22997184 14.22724053 266.64361091 2.1875 269.25 C-0.90513484 269.63358262 -3.72177948 269.61698722 -6.8125 269.25 C-7.53824219 269.1675 -8.26398438 269.085 -9.01171875 269 C-19.5951699 267.22685635 -27.62657599 260.77975133 -33.8125 252.25 C-35.71388549 248.92737687 -36.8125 246.14139902 -36.8125 242.25 C-78.0625 242.58 -119.3125 242.91 -161.8125 243.25 C-164.7825 249.19 -164.7825 249.19 -167.8125 255.25 C-169.2975 256.735 -169.2975 256.735 -170.8125 258.25 C-169.21385598 264.0893584 -166.27238377 268.93612072 -163.25 274.125 C-156.65720039 285.5929714 -150.4461238 297.24401859 -144.28686523 308.94873047 C-143.92997116 309.62560913 -143.57307709 310.30248779 -143.20536804 310.99987793 C-142.5303345 312.28075834 -141.85700941 313.56254098 -141.18562317 314.84533691 C-139.76701462 317.7334422 -139.76701462 317.7334422 -137.8125 320.25 C-134.92997355 320.41023562 -132.06871473 320.50954029 -129.18359375 320.56640625 C-127.88724754 320.5975779 -127.88724754 320.5975779 -126.56471252 320.62937927 C-123.79322555 320.69497114 -121.02164079 320.75380418 -118.25 320.8125 C-116.37564077 320.85567608 -114.50129157 320.89929006 -112.62695312 320.94335938 C-108.02223664 321.05066227 -103.41742142 321.15190215 -98.8125 321.25 C-98.60101318 320.0887561 -98.60101318 320.0887561 -98.38525391 318.90405273 C-96.71950481 311.1852299 -91.25802013 304.5833518 -84.8125 300.25 C-75.85511753 294.80708349 -66.63980671 293.01602341 -56.3125 295 C-46.46842447 297.43564755 -38.89809772 302.57407046 -33.5 311.1875 C-28.43755739 319.71736906 -27.86931525 328.54305693 -28.8125 338.25 C-31.4764129 348.47752276 -36.88595967 355.96941599 -45.75 361.625 C-54.94637526 366.72178629 -64.69495736 367.81287222 -74.9375 365.125 C-84.92083879 361.73383413 -92.30985643 355.27941947 -97.1875 346 C-98.47773074 343.37757979 -98.8125 342.26266521 -98.8125 339.25 C-110.6925 339.25 -122.5725 339.25 -134.8125 339.25 C-138.80798364 377.32668278 -138.80798364 377.32668278 -125.90185547 411.65673828 C-115.10620667 423.35250124 -104.10944388 427.39639407 -88.3321991 428.38694763 C-77.13014778 428.81791616 -65.96858464 428.27963711 -54.8125 427.25 C-54.61343048 426.63090256 -54.41436096 426.01180511 -54.20925903 425.37394714 C-53.94442719 424.56242691 -53.67959534 423.75090668 -53.40673828 422.91479492 C-53.0153215 421.70771126 -53.0153215 421.70771126 -52.61599731 420.47624207 C-49.78966021 412.64533778 -43.10548549 406.87326668 -35.8125 403.25 C-24.15203281 398.80149807 -14.30462202 399.43669487 -2.8125 404.25 C4.00439503 408.17149252 8.44167557 413.4066669 12.1875 420.25 C12.5278125 420.84039062 12.868125 421.43078125 13.21875 422.0390625 C16.70293904 429.36231169 16.29612277 439.47728504 14.49609375 447.2265625 C11.23885642 456.03064331 5.47595793 463.6872984 -2.8125 468.25 C-15.4372846 473.39579828 -25.20096204 473.53215593 -37.8125 468.25 C-47.12390778 462.89351207 -52.00206062 455.42125514 -54.8125 445.25 C-55.83488014 445.2699855 -55.83488014 445.2699855 -56.87791443 445.29037476 C-63.99971565 445.42356319 -71.12116063 445.51379698 -78.24389648 445.57958984 C-80.89923412 445.60628478 -83.55261064 445.65055241 -86.20776367 445.70263672 C-90.03328882 445.77577703 -93.85749469 445.8095343 -97.68359375 445.8359375 C-99.45131386 445.88238907 -99.45131386 445.88238907 -101.25474548 445.92977905 C-110.96068369 445.93370468 -116.10312335 442.73458213 -123.0703125 436.3203125 C-124.03457392 435.34692043 -124.99034489 434.36504515 -125.9375 433.375 C-126.70586182 432.59020264 -126.70586182 432.59020264 -127.48974609 431.78955078 C-130.80024163 428.38258214 -133.96224761 424.8721048 -137.02734375 421.2421875 C-139.98190943 417.94496978 -143.24361066 414.95516928 -146.48046875 411.9375 C-152.12008789 405.43824042 -153.42717526 399.5177901 -153.5625 391.0625 C-153.62111206 389.5010022 -153.62111206 389.5010022 -153.6809082 387.90795898 C-153.87659906 381.3640017 -153.78409416 374.88714452 -153.49485779 368.34953308 C-152.48014914 345.11506938 -151.96475188 327.78236818 -165.85351562 308.10888672 C-169.17779612 303.25752522 -171.91891344 298.08629607 -174.75 292.9375 C-175.81360795 291.06221221 -176.87989047 289.18843809 -177.94921875 287.31640625 C-180.93817264 282.05258638 -183.81688724 276.73673112 -186.640625 271.3828125 C-187.63920522 269.33022299 -187.63920522 269.33022299 -188.8125 268.25 C-190.56912991 268.27325262 -192.3259481 268.30280982 -194.08154297 268.36743164 C-204.77720528 268.71303568 -211.78411034 267.09159341 -220.125 260 C-227.20331289 253.22170979 -231.22383726 246.58154693 -232.1484375 236.63671875 C-232.28045736 224.13443755 -230.00847329 216.63440998 -221.32421875 207.51953125 C-216.73178275 203.36991179 -211.09330807 199.14247717 -204.8125 198.25 C-197.26647057 198.77069205 -197.26647057 198.77069205 -194.83203125 199.08007812 C-192.50037343 199.2052236 -190.98852639 199.11979704 -188.8125 198.25 C-186.17849578 195.25103619 -184.56591403 191.81470718 -182.8125 188.25 C-181.75322207 186.29571808 -180.6892881 184.34395383 -179.62109375 182.39453125 C-178.49566883 180.28477451 -177.37203616 178.17406094 -176.25 176.0625 C-170.93418161 166.11645207 -165.48709147 156.25643597 -159.90014648 146.46020508 C-159.39169189 145.56841553 -158.8832373 144.67662598 -158.359375 143.7578125 C-157.91432617 142.98066895 -157.46927734 142.20352539 -157.01074219 141.40283203 C-156.61532227 140.69239746 -156.21990234 139.98196289 -155.8125 139.25 C-155.46214188 138.63387344 -155.11178375 138.01774689 -154.75080872 137.38294983 C-153.72047476 135.04080955 -153.57542805 133.51440591 -153.60131836 130.9699707 C-153.60462662 130.12918976 -153.60793488 129.28840881 -153.61134338 128.42214966 C-153.6248735 127.51584808 -153.63840363 126.60954651 -153.65234375 125.67578125 C-153.65817978 124.72710175 -153.66401581 123.77842224 -153.67002869 122.80099487 C-153.68286545 120.77162845 -153.69978411 118.7422845 -153.72039795 116.71298218 C-153.76968376 111.46759976 -153.77469877 106.22214085 -153.78515625 100.9765625 C-153.78920471 99.43807899 -153.78920471 99.43807899 -153.79333496 97.86851501 C-153.80087343 94.99567769 -153.80709674 92.12284206 -153.8125 89.25 C-153.81417175 88.47587769 -153.81584351 87.70175537 -153.81756592 86.9041748 C-153.82198625 82.74691587 -153.77467165 78.5937783 -153.6875 74.4375 C-153.68999756 73.50010986 -153.69249512 72.56271973 -153.69506836 71.59692383 C-153.38976185 61.33996517 -146.97845439 54.94174729 -139.875 48.1875 C-138.63096662 46.97585067 -137.38875694 45.76232588 -136.1484375 44.546875 C-135.27396973 43.69125977 -135.27396973 43.69125977 -134.38183594 42.81835938 C-132.49497809 40.93267567 -130.72976627 38.9677421 -129 36.9375 C-126.50416799 34.01309078 -123.92446577 31.20052424 -121.25 28.4375 C-120.54746094 27.70917969 -119.84492188 26.98085938 -119.12109375 26.23046875 C-112.49459053 20.54580355 -106.33301487 20.84866105 -97.9765625 20.95703125 C-96.12482925 20.96339851 -96.12482925 20.96339851 -94.23568726 20.96989441 C-90.30273394 20.98665269 -86.37029779 21.02430117 -82.4375 21.0625 C-79.76693458 21.0792426 -77.09637401 21.09123817 -74.42578125 21.10351562 C-67.88784514 21.13654702 -61.35020953 21.18671888 -54.8125 21.25 C-54.61048477 20.62795685 -54.40846954 20.0059137 -54.20033264 19.36502075 C-53.93320969 18.55120941 -53.66608673 17.73739807 -53.39086914 16.89892578 C-53.12697891 16.09125763 -52.86308868 15.28358948 -52.59120178 14.45144653 C-49.76854624 6.47159417 -43.04314381 1.18830456 -35.8125 -2.75 C-23.74152593 -7.54438689 -11.13310292 -6.9979504 0 0 Z " fill="#2980B9" transform="translate(466.8125,22.75)"/>
<path d="M0 0 C0.70552002 0.10924805 1.41104004 0.21849609 2.13793945 0.33105469 C7.80723806 1.3681464 12.96834961 3.48565889 18.25 5.75 C21.35828194 40.74447266 21.35828194 40.74447266 16.81884766 49.51513672 C12.65310548 53.66776877 7.13339193 55.26766276 1.70556641 57.24365234 C-4.7924963 60.07628248 -10.49578763 64.25412359 -16.32116699 68.25634766 C-18.4914036 69.74410692 -20.67350864 71.21256309 -22.86035156 72.67578125 C-31.81309291 78.6752332 -40.64717359 84.78818261 -49.11425781 91.46289062 C-50.8231344 92.80754695 -52.54680501 94.1313646 -54.2734375 95.453125 C-75.76922495 111.99926345 -97.77332476 130.64950845 -114.5859375 152.02734375 C-116.56873936 154.52195187 -118.62981362 156.92780505 -120.72607422 159.32714844 C-135.97985592 176.88630099 -147.15578886 197.16553117 -157.75 217.75 C-161.8835625 213.8165516 -163.53180197 208.93727676 -165.75 203.75 C-166.27980469 202.58791016 -166.27980469 202.58791016 -166.8203125 201.40234375 C-169.07464625 196.22802652 -170.5616109 190.97358134 -171.875 185.5 C-172.11295288 184.51845947 -172.11295288 184.51845947 -172.35571289 183.51708984 C-175.01139781 171.89794499 -176.11690067 160.34324654 -176.0625 148.4375 C-176.05831055 147.17147949 -176.05412109 145.90545898 -176.04980469 144.60107422 C-175.93422427 134.99191502 -175.03988783 126.06679683 -172.75 116.75 C-172.45996094 115.48671875 -172.16992188 114.2234375 -171.87109375 112.921875 C-164.24654551 81.91325202 -146.70355791 52.89498909 -121.75 32.75 C-121.24903809 32.33862793 -120.74807617 31.92725586 -120.23193359 31.50341797 C-86.80104629 4.37532178 -42.39400327 -6.67455696 0 0 Z " fill="#67B8CB" transform="translate(295.75,107.25)"/>
<path d="M0 0 C3.84458185 1.28152728 4.05919723 2.44320524 5.8984375 5.9765625 C6.45402344 7.02900146 7.00960938 8.08144043 7.58203125 9.16577148 C8.17371094 10.30731689 8.76539063 11.4488623 9.375 12.625 C10.63074853 15.00503176 11.8883057 17.38401443 13.1484375 19.76171875 C13.46786316 20.36647537 13.78728882 20.97123199 14.11639404 21.59431458 C17.79074312 28.53289294 21.67004118 35.35296186 25.56005859 42.17236328 C26.05586426 43.04231934 26.55166992 43.91227539 27.0625 44.80859375 C27.81829346 46.07135132 27.81829346 46.07135132 28.58935547 47.35961914 C30 50 30 50 31.00830078 53.06030273 C32.29467983 56.52146112 33.25556036 58.50179099 36 61 C42.34039115 62.98241593 49.31966042 62.35277528 55.875 62.1875 C57.72655044 62.18053807 59.57812658 62.17853178 61.4296875 62.18164062 C65.9554344 62.17845927 70.47557637 62.10745268 75 62 C75.14099121 61.2258374 75.28198242 60.4516748 75.42724609 59.65405273 C77.09299519 51.9352299 82.55447987 45.3333518 89 41 C97.95738247 35.55708349 107.17269329 33.76602341 117.5 35.75 C127.34407553 38.18564755 134.91440228 43.32407046 140.3125 51.9375 C145.37494261 60.46736906 145.94318475 69.29305693 145 79 C142.3360871 89.22752276 136.92654033 96.71941599 128.0625 102.375 C118.86612474 107.47178629 109.11754264 108.56287222 98.875 105.875 C88.89166121 102.48383413 81.50264357 96.02941947 76.625 86.75 C75.33476926 84.12757979 75 83.01266521 75 80 C63.12 80 51.24 80 39 80 C35.00451636 118.07668278 35.00451636 118.07668278 47.91064453 152.40673828 C58.70629333 164.10250124 69.70305612 168.14639407 85.4803009 169.13694763 C96.68235222 169.56791616 107.84391536 169.02963711 119 168 C119.19906952 167.38090256 119.39813904 166.76180511 119.60324097 166.12394714 C120.00048874 164.90666679 120.00048874 164.90666679 120.40576172 163.66479492 C120.66670624 162.86007248 120.92765076 162.05535004 121.19650269 161.22624207 C124.02283979 153.39533778 130.70701451 147.62326668 138 144 C149.66046719 139.55149807 159.50787798 140.18669487 171 145 C177.81689503 148.92149252 182.25417557 154.1566669 186 161 C186.3403125 161.59039062 186.680625 162.18078125 187.03125 162.7890625 C190.51543904 170.11231169 190.10862277 180.22728504 188.30859375 187.9765625 C185.05135642 196.78064331 179.28845793 204.4372984 171 209 C158.3752154 214.14579828 148.61153796 214.28215593 136 209 C126.68859222 203.64351207 121.81043938 196.17125514 119 186 C117.97761986 186.0199855 117.97761986 186.0199855 116.93458557 186.04037476 C109.81278435 186.17356319 102.69133937 186.26379698 95.56860352 186.32958984 C92.91326588 186.35628478 90.25988936 186.40055241 87.60473633 186.45263672 C83.77921118 186.52577703 79.95500531 186.5595343 76.12890625 186.5859375 C74.36118614 186.63238907 74.36118614 186.63238907 72.55775452 186.67977905 C62.85181631 186.68370468 57.70937665 183.48458213 50.7421875 177.0703125 C49.77792608 176.09692043 48.82215511 175.11504515 47.875 174.125 C47.10663818 173.34020264 47.10663818 173.34020264 46.32275391 172.53955078 C43.01225837 169.13258214 39.85025239 165.6221048 36.78515625 161.9921875 C33.83059057 158.69496978 30.56888934 155.70516928 27.33203125 152.6875 C21.69241211 146.18824042 20.38532474 140.2677901 20.25 131.8125 C20.21092529 130.77150146 20.17185059 129.73050293 20.1315918 128.65795898 C19.93590094 122.1140017 20.02840584 115.63714452 20.31764221 109.09953308 C21.33235086 85.86506938 21.84774812 68.53236818 7.95898438 48.85888672 C4.63474544 44.00758588 1.89306473 38.83652346 -0.9375 33.6875 C-1.99964903 31.81082439 -3.06462252 29.93574372 -4.1328125 28.0625 C-6.55857543 23.78830891 -8.96299528 19.5041184 -11.3125 15.1875 C-11.84488281 14.21167969 -12.37726563 13.23585938 -12.92578125 12.23046875 C-14 10 -14 10 -14 8 C-13.15695312 7.59007812 -12.31390625 7.18015625 -11.4453125 6.7578125 C-10.34960938 6.21898437 -9.25390625 5.68015625 -8.125 5.125 C-6.48917969 4.32449219 -6.48917969 4.32449219 -4.8203125 3.5078125 C-1.96117453 2.15464063 -1.96117453 2.15464063 0 0 Z " fill="#2980B9" transform="translate(293,282)"/>
<path d="M0 0 C8.13231353 6.84283464 12.91110094 15.7935931 13.90234375 26.3203125 C14.27148006 37.86689638 11.14973719 46.5885392 3.625 55.375 C-3.00576771 62.16607199 -12.71333498 65.48627559 -22.125 65.75 C-23.54476093 65.66724526 -24.96275 65.54268831 -26.375 65.375 C-27.10074219 65.2925 -27.82648438 65.21 -28.57421875 65.125 C-39.1576699 63.35185635 -47.18907599 56.90475133 -53.375 48.375 C-55.27638549 45.05237687 -56.375 42.26639902 -56.375 38.375 C-97.625 38.705 -138.875 39.035 -181.375 39.375 C-183.355 43.335 -185.335 47.295 -187.375 51.375 C-194.39541886 58.7464398 -203.42972686 64.38332721 -213.81982422 64.66821289 C-225.86445971 64.77791155 -233.28262653 62.25839532 -242.17578125 53.7421875 C-250.05125144 45.26521604 -251.8899424 36.54573583 -251.67578125 25.09375 C-250.85538731 14.95069769 -245.81233405 8.09520386 -238.375 1.375 C-228.74781555 -5.57405115 -220.00212896 -6.64868012 -208.375 -5.625 C-199.85128468 -3.83593141 -192.0588105 1.69043536 -186.70703125 8.49609375 C-184.41957873 12.04466379 -182.96012879 15.41217802 -181.375 19.375 C-140.125 19.705 -98.875 20.035 -56.375 20.375 C-56.045 18.395 -55.715 16.415 -55.375 14.375 C-50.56816355 4.54510261 -42.57250704 -2.02820488 -32.375 -5.625 C-21.75178831 -8.89368052 -9.0536524 -6.17613497 0 0 Z " fill="#BCC2C7" transform="translate(486.375,226.625)"/>
<path d="M0 0 C8.14524489 5.48768618 12.76233978 13.54079997 15 23 C16.24782538 34.91344868 14.36779487 44.9040261 6.8125 54.375 C-0.74654603 62.26270021 -9.63369007 65.93587623 -20.375 66.3125 C-30.6928395 66.07023029 -39.25745932 62.44837936 -46.75390625 55.3359375 C-54.64929027 46.66882421 -56.33075753 37.99464692 -56.2109375 26.50390625 C-55.65445519 17.26011674 -51.49823327 9.60728135 -45.06640625 3.01953125 C-32.13473653 -8.10882306 -14.27935016 -8.83681096 0 0 Z " fill="#EFC419" transform="translate(423,323)"/>
<path d="M0 0 C7.99160052 5.76858489 12.64614239 12.66558796 15.25 22.25 C16.65038879 33.85496098 14.85333621 43.65466573 7.9375 53.125 C1.12894082 61.23732583 -6.53627393 64.95126462 -17 66.125 C-28.25417866 66.72348811 -37.31865618 63.79462495 -45.75 56.25 C-53.91329838 47.31006646 -56.10595756 38.47660447 -55.95703125 26.5625 C-55.32779257 16.49468105 -51.23074819 9.1815966 -43.76171875 2.4609375 C-30.80397342 -7.75429474 -14.0578425 -8.79202859 0 0 Z " fill="#EFC419" transform="translate(422.75,128.75)"/>
<path d="M0 0 C7.47476354 5.41920357 13.47348062 12.98459334 15.1875 22.25 C16.01469462 34.53587419 15.01810773 44.44484281 7.00390625 54.3671875 C-0.48646839 62.1314038 -9.45515765 66.05964816 -20.1875 66.6875 C-30.31963929 66.25170906 -39.721057 62.49903062 -46.8125 55.25 C-53.81375144 46.9715972 -56.42423482 37.95374558 -56.09375 27.19921875 C-55.10256579 16.80555104 -50.66606437 8.26419771 -42.75 1.4375 C-29.95584809 -7.83987828 -13.31666783 -8.37047692 0 0 Z " fill="#EFC319" transform="translate(466.8125,22.75)"/>
<path d="M0 0 C5.45822943 3.95790667 9.15585507 8.60392092 12.37890625 14.4921875 C12.71921875 15.08257812 13.05953125 15.67296875 13.41015625 16.28125 C16.89434529 23.60449919 16.48752902 33.71947254 14.6875 41.46875 C11.43026267 50.27283081 5.66736418 57.9294859 -2.62109375 62.4921875 C-15.24587835 67.63798578 -25.00955579 67.77434343 -37.62109375 62.4921875 C-45.92010069 57.71809409 -51.37804482 50.68738442 -54.49609375 41.6796875 C-57.14541544 31.50818459 -56.19426689 21.45529413 -51.40234375 12.1171875 C-45.71453369 2.76389984 -38.23117606 -2.04435299 -27.74609375 -4.84765625 C-18.01138836 -6.90411276 -8.6740998 -4.98986963 0 0 Z " fill="#EFC319" transform="translate(466.62109375,428.5078125)"/>
<path d="M0 0 C8.13231353 6.84283464 12.91110094 15.7935931 13.90234375 26.3203125 C14.27148006 37.86689638 11.14973719 46.5885392 3.625 55.375 C-3.00576771 62.16607199 -12.71333498 65.48627559 -22.125 65.75 C-23.54476093 65.66724526 -24.96275 65.54268831 -26.375 65.375 C-27.10074219 65.2925 -27.82648438 65.21 -28.57421875 65.125 C-39.16686932 63.35031509 -47.17456127 56.90060325 -53.375 48.375 C-58.46040729 39.68742921 -58.65698583 28.03612906 -56.796875 18.37109375 C-54.12715567 9.84012697 -48.87871167 3.18696211 -41.296875 -1.546875 C-27.83185323 -8.51154143 -12.97864007 -8.85364594 0 0 Z " fill="#EFC418" transform="translate(486.375,226.625)"/>
<path d="M0 0 C41.25 0 82.5 0 125 0 C125 5.94 125 11.88 125 18 C83.42 18 41.84 18 -1 18 C-0.505 9.09 -0.505 9.09 0 0 Z " fill="#2980B9" transform="translate(305,247)"/>
<path d="M0 0 C3.375 2.0625 3.375 2.0625 6 5 C6.72903264 9.08258278 6.66080414 11.04130474 4.29296875 14.4765625 C1.92998885 17.07704804 -0.41424822 18.89910557 -3.3125 20.875 C-20.31745027 33.01495787 -31.90449028 52.56445661 -36 73 C-36.50114353 76.94597892 -36.89799928 80.90169659 -37.1418457 84.87207031 C-37.52436113 89.79059488 -38.47259311 92.51935797 -42 96 C-44.88861709 97.44430855 -46.79647701 97.37688506 -50 97 C-52.65038654 95.02291283 -54.63848133 93.4185339 -55.48071289 90.11376953 C-55.6797211 87.844917 -55.69181259 85.65173173 -55.625 83.375 C-55.60179687 82.12517334 -55.60179687 82.12517334 -55.578125 80.85009766 C-54.56032637 54.79347418 -40.81895549 29.58710622 -22 12 C-7.15073854 -0.82508522 -7.15073854 -0.82508522 0 0 Z " fill="#E9EFF0" transform="translate(202,159)"/>
</svg>
